<svg id="Layer_1" enable-background="new 0 0 512 512" height="512" viewBox="0 0 512 512" width="512" xmlns="http://www.w3.org/2000/svg"><path d="m432 181.431c-8.837 0-16-7.163-16-16 0-38.285-31.146-69.431-69.431-69.431-8.837 0-16-7.163-16-16s7.163-16 16-16c55.929 0 101.431 45.502 101.431 101.431 0 8.837-7.163 16-16 16z" fill="#8dffff"/><path d="m496 181.431c-8.837 0-16-7.163-16-16 0-73.575-59.856-133.431-133.431-133.431-8.837 0-16-7.163-16-16s7.163-16 16-16c91.219 0 165.431 74.212 165.431 165.431 0 8.837-7.163 16-16 16z" fill="#8dffff"/><path d="m362.511 149.48c-6.251-6.247-16.381-6.242-22.628.007l-14.828 14.837-168.2 26.561c-8.729 1.378-14.688 9.57-13.31 18.299 1.381 8.744 9.591 14.688 18.3 13.309l124.728-19.694-65.556 65.556c-10.109 10.108-2.812 27.313 11.313 27.313 4.095 0 8.189-1.563 11.313-4.687l65.57-65.569-19.698 124.751c-1.378 8.729 4.581 16.921 13.31 18.3 8.815 1.384 16.934-4.662 18.3-13.31l26.557-168.201 14.835-14.844c6.247-6.25 6.244-16.38-.006-22.628z" fill="#b2b2b2"/><path d="m364.505 414.999c6.248 6.248 6.248 16.379 0 22.627l-14.286 14.286c-80.117 80.117-210.016 80.117-290.133 0-80.119-80.118-80.109-210.025 0-290.133l14.286-14.286c6.248-6.248 16.379-6.248 22.627 0z" fill="#6994ff"/><path d="m350.219 401.065c-80.117 80.117-210.016 80.117-290.133 0-33.579-33.579-53.078-75.905-58.507-119.638 5.419-43.744 24.928-86.069 58.507-119.648l14.286-14.286c6.248-6.248 16.379-6.248 22.627 0 265.533 265.533 253.502 253.306 253.22 253.572z" fill="#80aaff"/><circle cx="348" cy="163.998" fill="#aaa" r="36"/></svg>