<?xml version="1.0" encoding="iso-8859-1"?>
<!-- Generator: Adobe Illustrator 19.0.0, SVG Export Plug-In . SVG Version: 6.00 Build 0)  -->
<svg version="1.1" id="Capa_1" xmlns="http://www.w3.org/2000/svg" xmlns:xlink="http://www.w3.org/1999/xlink" x="0px" y="0px"
	 viewBox="0 0 512.001 512.001" style="enable-background:new 0 0 512.001 512.001;" xml:space="preserve">
<path style="fill:#136EF1;" d="M125.682,62.394L83.39,19.804c-5.699-5.999-15.297-5.999-20.996,0l-42.591,42.59
	c-5.999,5.699-5.999,15.297,0,21.297l42.59,41.99c5.699,5.999,15.297,5.999,20.996,0l21.297-20.995l20.996-21.297
	C131.678,77.691,131.678,68.093,125.682,62.394z"/>
<path style="fill:#0088FF;" d="M83.39,125.681c-5.699,5.999-15.297,5.999-20.996,0L19.803,83.69c-5.999-5.999-5.999-15.598,0-21.297
	l21.297-21.297l63.587,63.589L83.39,125.681z"/>
<path style="fill:#3C3B40;" d="M506.6,506.601c-2.698,3-6.598,4.5-10.497,4.5s-7.798-1.5-10.497-4.5l-83.983-83.982
	c-5.998-5.699-5.998-15.297,0-20.996c5.699-5.999,15.297-5.999,20.996,0l83.982,83.982C512.6,491.304,512.6,500.902,506.6,506.601z"
	/>
<path style="fill:#57555C;" d="M506.6,506.601c-2.698,3-6.598,4.5-10.497,4.5s-7.798-1.5-10.497-4.5l-83.983-83.982
	c-5.998-5.699-5.998-15.297,0-20.996L506.6,506.601z"/>
<path style="fill:#A8AFF1;" d="M361.732,298.445l-45.291-45.291c-5.699-5.998-15.297-5.998-20.996,0l-20.996,21.297l-21.295,20.996
	c-5.999,5.699-5.999,15.297,0,20.996l45.289,45.289c6.9,7.201,18.598,5.699,23.696-3.299c3.899-7.198,9.298-14.096,15.596-20.696
	c6.6-6.298,13.497-11.698,20.696-15.596C367.13,317.341,368.93,305.344,361.732,298.445z"/>
<g>
	<path style="fill:#C5C9F7;" d="M274.45,274.45l63.287,63.287c-6.298,6.6-11.697,13.497-15.596,20.696
		c-5.098,8.998-16.796,10.499-23.696,3.299l-45.289-45.289c-5.999-5.699-5.999-15.297,0-20.996L274.45,274.45z"/>
	<path style="fill:#C5C9F7;" d="M147.016,337.875c-5.858-5.858-5.858-15.349,0-21.207l42.413-42.413
		c5.858-5.858,15.349-5.858,21.207,0c5.858,5.858,5.858,15.349,0,21.207l-42.413,42.413
		C162.364,343.734,152.874,343.734,147.016,337.875z"/>
</g>
<path style="fill:#A8AFF1;" d="M274.256,210.636c-5.858-5.858-5.858-15.349,0-21.207l42.413-42.428
	c5.858-5.858,15.349-5.858,21.207,0c5.858,5.858,5.858,15.349,0,21.207l-42.413,42.428
	C289.603,216.495,280.113,216.495,274.256,210.636z"/>
<path style="fill:#C5C9F7;" d="M337.735,231.859L189.267,83.391c-5.699-5.999-15.297-5.999-20.996,0l-42.292,42.59l-42.59,42.292
	c-5.999,5.699-5.999,15.295,0,20.995l148.469,148.469c5.699,5.999,15.297,5.999,20.996,0l42.59-42.29l42.29-42.59
	C343.735,247.156,343.735,237.558,337.735,231.859z"/>
<path style="fill:#00A5FF;" d="M157.561,433.246c-5.932,5.903-15.409,5.74-21.178-0.029l-84.884-84.885
	c-5.795-5.795-5.915-15.292,0.029-21.236l53.075-52.782c5.858-5.829,15.319-5.829,21.178,0.029l84.884,84.884
	c5.795,5.795,5.915,15.292-0.029,21.236L157.561,433.246z"/>
<path style="fill:#0088FF;" d="M89.278,480.308l-84.884-84.87C1.581,392.626,0,388.818,0,384.835c0-3.983,1.581-7.791,4.394-10.603
	l57.709-57.709l106.092,106.092l-57.71,57.693C104.626,486.165,95.136,486.165,89.278,480.308z"/>
<path style="fill:#E1E4FB;" d="M295.445,295.446l-42.59,42.29c-5.699,5.999-15.297,5.999-20.996,0L83.391,189.267
	c-5.999-5.699-5.999-15.295,0-20.995l42.59-42.292L295.445,295.446z"/>
<path style="fill:#0088FF;" d="M369.831,215.059c-3.983,0-7.791-1.582-10.603-4.394l-84.885-84.884
	c-5.858-5.844-5.858-15.319-0.029-21.178l52.782-53.09c5.894-5.924,15.405-5.861,21.236-0.029l84.884,84.884
	c5.858,5.844,5.858,15.319,0.029,21.178l-52.782,53.09C374.88,216.249,366.878,215.059,369.831,215.059z"/>
<path style="fill:#136EF1;" d="M422.612,168.178L316.52,62.087l57.71-57.693c5.858-5.858,15.349-5.858,21.207,0l84.884,84.884
	c5.855,5.855,5.855,15.352,0,21.207L422.612,168.178z"/>
<path style="fill:#C5C9F7;" d="M507.501,316.74c-53.09-53.388-138.871-52.189-190.76,0c-52.189,51.89-53.39,137.672,0,190.761
	c2.698,2.998,6.598,4.498,10.497,4.498c3.899,0,7.798-1.5,10.497-4.498L507.5,337.735
	C513.501,332.038,513.501,322.44,507.501,316.74z"/>
<path style="fill:#E1E4FB;" d="M422.619,422.619l-84.883,84.883c-2.698,2.998-6.598,4.498-10.497,4.498
	c-3.899,0-7.798-1.5-10.497-4.498c-53.39-53.09-52.189-138.871,0-190.761L422.619,422.619z"/>
<path style="fill:#0088FF;" d="M167.972,62.394c-16.796-17.096-46.49-17.096-63.287,0L83.69,83.69l-21.297,20.996
	c-17.695,17.395-17.695,45.889-0.298,63.287l20.995,21.295l10.799,10.799l53.088-53.09l53.09-53.09L167.972,62.394z"/>
<path style="fill:#00A5FF;" d="M83.69,83.69l63.287,63.287l-53.088,53.09L83.09,189.268l-20.995-21.295
	c-17.397-17.397-17.397-45.891,0.298-63.287L83.69,83.69z"/>
<g>
</g>
<g>
</g>
<g>
</g>
<g>
</g>
<g>
</g>
<g>
</g>
<g>
</g>
<g>
</g>
<g>
</g>
<g>
</g>
<g>
</g>
<g>
</g>
<g>
</g>
<g>
</g>
<g>
</g>
</svg>
