<svg height="511pt" viewBox="0 -3 511.99998 511" width="511pt" xmlns="http://www.w3.org/2000/svg"><path d="m502.585938 253.46875c0 138.785156-112.507813 251.292969-251.292969 251.292969-138.785157 0-251.292969-112.507813-251.292969-251.292969s112.507812-251.292969 251.292969-251.292969c138.785156 0 251.292969 112.507813 251.292969 251.292969zm0 0" fill="#6392e3"/><path d="m461.667969 206.222656c0 113.613282-92.105469 205.71875-205.722657 205.71875-113.613281 0-205.71875-92.105468-205.71875-205.71875 0-113.617187 92.105469-205.722656 205.71875-205.722656 113.617188 0 205.722657 92.105469 205.722657 205.722656zm0 0" fill="#7fa8f0"/><path d="m209.398438 188.179688-32.226563 37.71875-36.339844-31.054688 32.226563-37.714844zm0 0" fill="#3e4b61"/><path d="m159.566406 178.238281 36.34375 31.054688 15.542969-19.332031-36.34375-31.054688zm0 0" fill="#364154"/><path d="m426.625 339.617188-63.269531 74.039062-34.070313-29.109375 63.269532-74.042969zm0 0" fill="#3e4b61"/><path d="m367.660156 339.601562 34.066406 29.117188 25.144532-29.015625-34.078125-29.113281zm0 0" fill="#343f52"/><path d="m65.421875 97.609375c5.03125-5.886719 13.878906-6.582031 19.765625-1.550781 3.40625 2.910156 5.0625 7.097656 4.886719 11.25l34.679687 29.632812-11.230468 13.140625-34.679688-29.632812c-4.074219.820312-8.46875-.164063-11.875-3.074219-5.882812-5.027344-6.578125-13.878906-1.546875-19.765625zm0 0" fill="#2b3a49"/><path d="m80.574219 101.871094c3.402343 2.910156 5.058593 7.097656 4.886719 11.25l34.476562 29.460937 4.816406-5.640625-34.675781-29.632812c.171875-4.152344-1.484375-8.339844-4.890625-11.25-5.886719-5.03125-14.734375-4.335938-19.765625 1.550781-.953125 1.117187-1.699219 2.34375-2.246094 3.625 5.128907-3.769531 12.347657-3.675781 17.398438.636719zm0 0" fill="#232f3b"/><path d="m360.871094 194.886719-153.710938 179.878906-16.957031-14.488281 153.710937-179.878906zm0 0" fill="#2f394a"/><path d="m336.273438 397.347656 70.378906-82.363281c6.078125-7.109375 5.238281-17.800781-1.871094-23.878906l-159.585938-136.371094c-7.113281-6.074219-17.800781-5.238281-23.878906 1.875l-70.378906 82.359375c-6.078125 7.113281-5.238281 17.804688 1.871094 23.878906l159.585937 136.371094c7.109375 6.078125 17.800781 5.238281 23.878907-1.871094zm0 0" fill="#fbfffc"/><path d="m55.355469 188.15625c-3.742188 4.378906-2.847657 11.085938 1.964843 14.253906 35.425782 23.320313 83.5625 17.222656 111.890626-15.929687 28.261718-33.070313 26.835937-81.636719-1.710938-113.003907-3.878906-4.261718-10.644531-4.101562-14.386719.28125zm0 0" fill="#fbfffc"/><path d="m167.5 73.476562c-3.878906-4.261718-10.644531-4.101562-14.386719.28125l-10.386719 12.152344c2.328126.175782 4.601563 1.195313 6.3125 3.074219 28.546876 31.367187 29.972657 79.929687 1.710938 113.003906-.457031.535157-.9375 1.046875-1.40625 1.570313 7.277344-4.523438 14-10.210938 19.867188-17.074219 28.261718-33.074219 26.835937-81.640625-1.710938-113.007813zm0 0" fill="#e2e6e3"/><path d="m371.527344 426.4375 67.289062-78.742188c2.929688-3.425781 2.523438-8.582031-.902344-11.511718l-4.546874-3.882813c-3.425782-2.929687-8.582032-2.527343-11.511719.902344l-67.285157 78.742187c-2.929687 3.425782-2.523437 8.582032.902344 11.511719l4.546875 3.882813c3.425781 2.929687 8.582031 2.523437 11.507813-.902344zm0 0" fill="#46587a"/><path d="m437.914062 336.183594-4.546874-3.882813c-3.425782-2.929687-8.582032-2.527343-11.511719.902344l-16.367188 19.15625c2.925781-3.425781 8.082031-3.832031 11.507813-.902344l4.546875 3.882813c3.425781 2.929687 3.832031 8.085937.902343 11.511718l16.371094-19.15625c2.929688-3.429687 2.523438-8.582031-.902344-11.511718zm0 0" fill="#3c4b69"/><path d="m253.675781 401.253906-78.441406 91.792969c-3.722656-1.183594-7.40625-2.4375-11.054687-3.792969-.03125-.003906-.058594-.023437-.089844-.023437-6.25-2.316407-12.394532-4.875-18.394532-7.65625-3.304687-1.53125-6.566406-3.136719-9.785156-4.800781-.125.089843-.242187.191406-.359375.300781l.285157-.34375c-.007813 0-.019532 0-.027344-.007813-2.734375-1.417968-5.4375-2.882812-8.105469-4.398437-9.132813-5.160157-17.890625-10.875-26.257813-17.101563-2.414062-1.785156-4.800781-3.632812-7.140624-5.511718-8.101563-6.488282-15.792969-13.46875-23.019532-20.898438-2.230468-2.285156-4.40625-4.605469-6.539062-6.980469l89.894531-105.195312c3.980469-4.667969 10.992187-5.21875 15.648437-1.230469l33.648438 28.757812 16.96875 14.496094 31.539062 26.945313c4.660157 3.976562 5.207032 10.988281 1.230469 15.648437zm0 0" fill="#3e4b61"/><path d="m152.75 381.308594 26.339844-30.824219c1.15625-1.355469.996094-3.394531-.359375-4.554687l-18.710938-15.988282c-1.355469-1.15625-3.394531-.996094-4.554687.359375l-26.335938 30.824219c-1.160156 1.355469-1 3.394531.355469 4.554688l18.710937 15.984374c1.355469 1.160157 3.394532 1 4.554688-.355468zm0 0" fill="#c1eeee"/><path d="m113.414062 427.339844 26.335938-30.820313c1.160156-1.359375 1-3.398437-.355469-4.554687l-18.710937-15.988282c-1.355469-1.160156-3.394532-1-4.554688.355469l-26.335937 30.824219c-1.160157 1.355469-1 3.394531.355469 4.554688l18.710937 15.988281c1.355469 1.15625 3.394531 1 4.554687-.359375zm0 0" fill="#c1eeee"/><path d="m102.492188 440.125-4.222657 4.9375-3.96875 4.648438c-8.101562-6.488282-15.789062-13.46875-23.015625-20.898438l7.585938-8.875c.441406-.511719.996094-.847656 1.59375-1.003906.105468-.027344.207031-.058594.3125-.074219.90625-.160156 1.882812.078125 2.648437.726563l18.703125 15.984374c1.355469 1.164063 1.515625 3.199219.363282 4.554688zm0 0" fill="#c1eeee"/><path d="m102.492188 440.125c1.152343-1.355469.992187-3.390625-.363282-4.554688l-18.703125-15.988281c-.742187-.625-1.6875-.863281-2.570312-.730469-.070313.015626-.144531.019532-.214844.039063-.03125.007813-.070313.015625-.105469.023437-.628906.183594-1.21875.542969-1.675781 1.082032l-4.257813 4.988281c1.277344-1.246094 3.324219-1.339844 4.695313-.15625l18.335937 15.664063c1.390626 1.191406 1.597657 3.214843.554688 4.667968l.082031-.097656zm0 0" fill="#9fdcef"/><path d="m183.222656 407.351562 26.339844-30.824218c1.160156-1.355469 1-3.394532-.355469-4.554688l-18.710937-15.988281c-1.359375-1.15625-3.398438-.996094-4.554688.359375l-26.339844 30.820312c-1.160156 1.359376-1 3.398438.355469 4.554688l18.710938 15.988281c1.355469 1.160157 3.394531 1 4.554687-.355469zm0 0" fill="#c1eeee"/><path d="m132.960938 466.171875-4.222657 4.9375c0 .011719 0 .011719-.011719.011719l-1.027343 1.203125c-9.128907-5.160157-17.886719-10.875-26.253907-17.101563l7.894532-9.238281c.515625-.609375 1.214844-.972656 1.945312-1.097656.082032-.007813.164063-.027344.246094-.023438.824219-.070312 1.679688.1875 2.359375.769531l18.714844 15.984376c1.355469 1.152343 1.515625 3.199218.355469 4.554687zm0 0" fill="#c1eeee"/><path d="m213.699219 433.390625 26.339843-30.820313c1.15625-1.359374.996094-3.398437-.359374-4.554687l-18.707032-15.988281c-1.359375-1.160156-3.398437-1-4.558594.355468l-26.335937 30.824219c-1.160156 1.355469-1 3.394531.355469 4.554688l18.710937 15.988281c1.355469 1.15625 3.394531.996094 4.554688-.359375zm0 0" fill="#c1eeee"/><path d="m239.679688 398.015625-18.707032-15.988281c-.820312-.699219-1.882812-.910156-2.855468-.679688-.640626.179688-1.242188.546875-1.707032 1.09375l-4.496094 5.265625c1.277344-1.242187 3.3125-1.335937 4.695313-.152343l18.335937 15.664062c1.386719 1.1875 1.597657 3.238281.53125 4.683594l4.5625-5.335938c1.15625-1.355468.996094-3.394531-.359374-4.550781zm0 0" fill="#9fdcef"/><path d="m174.363281 479.421875 26.335938-30.820313c1.160156-1.359374 1-3.398437-.355469-4.554687l-18.710938-15.988281c-1.355468-1.160156-3.394531-1-4.554687.355468l-26.335937 30.824219c-1.160157 1.355469-1 3.394531.355468 4.554688l18.710938 15.988281c1.355468 1.160156 3.394531 1 4.554687-.359375zm0 0" fill="#c1eeee"/><path d="m200.34375 444.046875-18.710938-15.988281c-.652343-.558594-1.46875-.804688-2.265624-.761719-.859376.085937-1.683594.484375-2.289063 1.191406l-4.242187 4.976563c1.273437-1.246094 3.308593-1.335938 4.691406-.15625l18.339844 15.675781c1.355468 1.148437 1.585937 3.105469.625 4.542969l4.207031-4.925782c1.160156-1.359374 1.003906-3.398437-.355469-4.554687zm0 0" fill="#9fdcef"/><path d="m147.058594 401.941406c.355468-.273437.753906-.472656 1.171875-.585937-.417969.109375-.820313.304687-1.171875.585937zm0 0" fill="#c1eeee"/><path d="m170.878906 419.585938c.242188 1.039062.011719 2.167968-.734375 3.039062l-4.402343 5.148438c1.203124-1.453126 1.019531-3.609376-.429688-4.835938l-18.339844-15.675781c-1.367187-1.167969-3.371094-1.082031-4.648437.121093l-22.058594 25.816407c-1.160156 1.355469-1 3.394531.355469 4.554687l18.710937 15.988282c1.355469 1.15625 3.394531.996093 4.554688-.359376l26.339843-30.820312c.730469-.855469.933594-1.972656.652344-2.976562zm0 0" fill="#c1eeee"/><path d="m151.160156 402.015625 18.710938 15.988281c.503906.433594.84375.984375 1.007812 1.582032-.160156-.699219-.527344-1.359376-1.117187-1.859376l-18.335938-15.667968c-.917969-.777344-2.117187-1.003906-3.195312-.703125.992187-.265625 2.089843-.054688 2.929687.660156zm0 0" fill="#9fdcef"/><path d="m147.058594 401.941406c-.191406.148438-.371094.3125-.53125.503906l-4.246094 4.972657c.011719-.011719.03125-.019531.042969-.035157l4.28125-5.007812c.136719-.164062.292969-.304688.453125-.433594zm0 0" fill="#9fdcef"/><path d="m164.089844 489.230469c-6.253906-2.316407-12.394532-4.875-18.394532-7.65625-3.304687-1.53125-6.566406-3.136719-9.789062-4.800781-.125.089843-.238281.191406-.355469.300781l.285157-.34375c-.007813 0-.019532 0-.03125-.007813l4.011718-4.699218c.519532-.613282 1.214844-.976563 1.945313-1.089844.011719-.011719.011719-.011719.023437-.007813.09375-.019531.183594-.027343.277344-.035156.808594-.039063 1.644531.207031 2.308594.777344l18.710937 15.988281c.503907.429688.847657.984375 1.007813 1.574219zm0 0" fill="#c1eeee"/><path d="m395.660156 234.875 113.679688-133.027344c3.980468-4.664062 3.429687-11.667968-1.230469-15.652344l-82.152344-70.199218c-4.660156-3.984375-11.664062-3.433594-15.648437 1.226562l-113.675782 133.03125c-3.984374 4.660156-3.433593 11.664063 1.226563 15.648438l82.152344 70.199218c4.660156 3.984376 11.667969 3.433594 15.648437-1.226562zm0 0" fill="#3e4b61"/><path d="m408.417969 81.902344 26.339843-30.824219c1.15625-1.355469.996094-3.394531-.359374-4.554687l-18.707032-15.984376c-1.359375-1.160156-3.398437-1-4.554687.355469l-26.339844 30.824219c-1.160156 1.355469-1 3.394531.355469 4.554688l18.710937 15.984374c1.355469 1.160157 3.394531 1 4.554688-.355468zm0 0" fill="#c1eeee"/><path d="m369.082031 127.933594 26.339844-30.820313c1.15625-1.359375.996094-3.398437-.359375-4.558593l-18.707031-15.984376c-1.359375-1.160156-3.398438-1-4.554688.355469l-26.339843 30.824219c-1.160157 1.355469-1 3.394531.355468 4.554688l18.710938 15.988281c1.355468 1.160156 3.394531 1 4.554687-.359375zm0 0" fill="#c1eeee"/><path d="m331.816406 171.542969 26.339844-30.824219c1.15625-1.355469.996094-3.394531-.359375-4.554688l-18.707031-15.984374c-1.359375-1.160157-3.398438-1-4.554688.355468l-26.339844 30.824219c-1.160156 1.355469-1 3.394531.355469 4.554687l18.710938 15.984376c1.355469 1.160156 3.394531 1.003906 4.554687-.355469zm0 0" fill="#c1eeee"/><path d="m357.796875 136.164062-18.707031-15.984374c-.824219-.707032-1.898438-.914063-2.875-.675782-.636719.183594-1.230469.542969-1.691406 1.085938l-4.253907 4.988281c1.277344-1.242187 3.324219-1.339844 4.695313-.15625l18.335937 15.664063c1.386719 1.191406 1.59375 3.207031.558594 4.660156l4.296875-5.023438c1.160156-1.359375 1-3.398437-.359375-4.558594zm0 0" fill="#9fdcef"/><path d="m438.890625 107.945312 26.339844-30.824218c1.160156-1.355469 1-3.394532-.355469-4.554688l-18.710938-15.988281c-1.355468-1.160156-3.394531-1-4.554687.355469l-26.339844 30.824218c-1.15625 1.355469-.996093 3.394532.359375 4.554688l18.707032 15.988281c1.359374 1.160157 3.398437 1 4.554687-.355469zm0 0" fill="#c1eeee"/><path d="m399.558594 153.976562 26.335937-30.824218c1.160157-1.355469 1-3.394532-.355469-4.554688l-18.710937-15.988281c-1.355469-1.160156-3.394531-1-4.554687.359375l-26.339844 30.820312c-1.15625 1.359376-.996094 3.398438.359375 4.554688l18.710937 15.988281c1.355469 1.160157 3.394532 1 4.554688-.355469zm0 0" fill="#c1eeee"/><path d="m362.292969 197.585938 26.335937-30.824219c1.160156-1.355469 1-3.394531-.355468-4.554688l-18.710938-15.988281c-1.355469-1.160156-3.394531-1-4.554688.355469l-26.335937 30.824219c-1.160156 1.359374-1 3.398437.355469 4.554687l18.710937 15.988281c1.355469 1.160156 3.394531 1 4.554688-.355468zm0 0" fill="#c1eeee"/><path d="m469.367188 133.984375 26.335937-30.824219c1.160156-1.355468 1-3.394531-.355469-4.554687l-18.710937-15.984375c-1.355469-1.160156-3.394531-1-4.554688.355468l-26.335937 30.824219c-1.160156 1.355469-1 3.394531.355468 4.554688l18.710938 15.984375c1.355469 1.160156 3.394531 1.003906 4.554688-.355469zm0 0" fill="#c1eeee"/><path d="m495.347656 98.605469-18.707031-15.984375c-.820313-.699219-1.882813-.910156-2.855469-.679688-.640625.179688-1.238281.542969-1.707031 1.09375l-4.496094 5.265625c1.277344-1.242187 3.3125-1.335937 4.695313-.15625l18.335937 15.667969c1.386719 1.1875 1.597657 3.238281.535157 4.683594l4.558593-5.335938c1.15625-1.355468.996094-3.394531-.359375-4.554687zm0 0" fill="#9fdcef"/><path d="m430.03125 180.019531 26.339844-30.824219c1.15625-1.359374.996094-3.398437-.359375-4.554687l-18.707031-15.988281c-1.359376-1.160156-3.398438-1-4.554688.355468l-26.339844 30.824219c-1.160156 1.355469-1 3.394531.355469 4.554688l18.710937 15.988281c1.355469 1.160156 3.394532 1 4.554688-.355469zm0 0" fill="#c1eeee"/><path d="m392.765625 223.625 26.339844-30.820312c1.15625-1.359376 1-3.398438-.359375-4.554688l-18.707032-15.988281c-1.359374-1.160157-3.398437-1-4.554687.355469l-26.339844 30.824218c-1.160156 1.355469-1 3.394532.355469 4.554688l18.710938 15.988281c1.355468 1.160156 3.394531 1 4.554687-.359375zm0 0" fill="#c1eeee"/><path d="m248.863281 198.777344c-1.976562-5.660156-8.167969-8.640625-13.828125-6.664063-5.65625 1.976563-8.640625 8.167969-6.664062 13.824219 1.976562 5.660156 8.167968 8.644531 13.828125 6.667969 5.65625-1.980469 8.640625-8.167969 6.664062-13.828125zm0 0" fill="#e14f58"/><path d="m276.230469 222.039062c-1.976563-5.65625-8.167969-8.640624-13.828125-6.664062-5.65625 1.976562-8.640625 8.167969-6.664063 13.828125 1.976563 5.65625 8.167969 8.640625 13.828125 6.664063 5.65625-1.976563 8.640625-8.167969 6.664063-13.828126zm0 0" fill="#6392e3"/><path d="m242.738281 212.40625c1.367188-2.574219 1.695313-5.683594.65625-8.65625-1.976562-5.660156-8.171875-8.648438-13.824219-6.667969-.183593.0625-.371093.132813-.542968.214844 1.230468-2.335937 3.324218-4.222656 6.007812-5.167969 5.664063-1.980468 11.847656 1.003906 13.828125 6.667969 1.917969 5.464844-.808593 11.445313-6.125 13.609375zm0 0" fill="#bd424a"/><path d="m270.105469 235.667969c1.363281-2.574219 1.691406-5.679688.65625-8.65625-1.980469-5.660157-8.164063-8.644531-13.828125-6.667969-.183594.0625-.367188.136719-.542969.21875 1.230469-2.339844 3.324219-4.226562 6.011719-5.171875 5.660156-1.980469 11.847656 1.007813 13.828125 6.667969 1.917969 5.476562-.8125 11.445312-6.125 13.609375zm0 0" fill="#5781c9"/><path d="m406.65625 314.984375-17.234375 20.167969c5.972656-7.109375 5.097656-17.726563-1.96875-23.765625l-159.585937-136.375c-7.109376-6.074219-17.804688-5.242188-23.878907 1.875l17.324219-20.277344c6.082031-7.109375 16.769531-7.949219 23.878906-1.875l159.585938 136.375c7.117187 6.070313 7.949218 16.765625 1.878906 23.875zm0 0" fill="#e2e6e3"/><g fill="#9fdcef"><path d="m209.207031 371.972656-18.710937-15.988281c-.820313-.699219-1.886719-.910156-2.859375-.675781-.640625.179687-1.238281.542968-1.703125 1.089844l-4.492188 5.269531c1.273438-1.246094 3.308594-1.335938 4.691406-.15625l18.335938 15.664062c1.378906 1.195313 1.601562 3.21875.550781 4.667969l4.542969-5.316406c1.160156-1.355469 1-3.394532-.355469-4.554688zm0 0"/><path d="m178.730469 345.929688-18.710938-15.988282c-.820312-.699218-1.886719-.910156-2.863281-.671875-.640625.179688-1.238281.542969-1.707031 1.089844l-4.6875 5.492187c1.246093-1.460937 3.4375-1.628906 4.898437-.382812l18.339844 15.675781c1.367188 1.175781 1.589844 3.179688.570312 4.628907l4.519532-5.289063c1.15625-1.355469 1-3.394531-.359375-4.554687zm0 0"/><path d="m146.976562 407.261719 18.335938 15.675781c1.449219 1.226562 1.632812 3.382812.429688 4.835938l4.40625-5.148438c.742187-.867188.972656-2 .734374-3.039062-.167968-.597657-.507812-1.152344-1.011718-1.582032l-18.710938-15.988281c-.835937-.714844-1.9375-.925781-2.929687-.664063-.417969.117188-.816407.316407-1.171875.589844-.160156.128906-.3125.269532-.449219.433594l-4.28125 5.007812c1.273437-1.207031 3.277344-1.289062 4.648437-.121093zm0 0"/><path d="m139.394531 391.964844-18.707031-15.988282c-.660156-.5625-1.476562-.808593-2.277344-.761718-.855468.085937-1.675781.484375-2.277344 1.191406l-4.246093 4.972656c1.273437-1.242187 3.308593-1.335937 4.695312-.15625l18.335938 15.675782c1.335937 1.144531 1.578125 3.074218.652343 4.515624l4.183594-4.894531c1.15625-1.359375.996094-3.398437-.359375-4.554687zm0 0"/><path d="m128.738281 471.109375 4.222657-4.9375c1.164062-1.355469 1-3.402344-.355469-4.554687l-18.710938-15.984376c-.683593-.585937-1.539062-.839843-2.363281-.769531-.007812 0-.011719 0-.023438 0-.144531.019531-.289062.039063-.433593.078125-.015625.003906-.035157.007813-.050781.011719-.636719.179687-1.230469.542969-1.691407 1.085937l-4.253906 4.988282c1.273437-1.242188 3.320313-1.339844 4.691406-.15625l18.339844 15.664062c1.394531 1.191406 1.597656 3.246094.527344 4.691406l.089843-.105468c.011719 0 .011719 0 .011719-.011719zm0 0"/><path d="m163.082031 487.65625-18.710937-15.988281c-.664063-.570313-1.5-.816407-2.308594-.777344-.09375.007813-.183594.015625-.277344.03125-.011718 0-.011718 0-.023437.011719-.730469.144531-1.429688.527344-1.957031 1.148437l-3.96875 4.648438-.285157.34375c.117188-.109375.230469-.210938.355469-.300781 1.277344-.949219 3.082031-.933594 4.335938.144531l5.453124 4.65625c6.003907 2.78125 12.144532 5.339843 18.394532 7.65625-.160156-.589844-.503906-1.140625-1.007813-1.574219zm0 0"/><path d="m418.746094 188.25-18.707032-15.988281c-.824218-.703125-1.890624-.914063-2.867187-.675781-.640625.179687-1.234375.546874-1.699219 1.089843l-4.253906 4.988281c1.273438-1.242187 3.320312-1.339843 4.691406-.15625l18.339844 15.667969c1.402344 1.191407 1.601562 3.261719.515625 4.707031l4.339844-5.078124c1.160156-1.359376 1-3.398438-.359375-4.554688zm0 0"/><path d="m388.273438 162.207031-18.710938-15.988281c-.820312-.703125-1.890625-.914062-2.867188-.671875-.636718.179687-1.230468.542969-1.695312 1.085937l-4.253906 4.988282c1.273437-1.246094 3.320312-1.339844 4.691406-.15625l18.339844 15.664062c1.402344 1.195313 1.601562 3.261719.515625 4.710938l4.335937-5.078125c1.160156-1.355469 1-3.394531-.355468-4.554688zm0 0"/><path d="m456.011719 144.636719-18.707031-15.984375c-.65625-.5625-1.472657-.804688-2.269532-.765625-.855468.089843-1.683594.488281-2.285156 1.195312l-4.246094 4.976563c1.273438-1.246094 3.308594-1.339844 4.691406-.15625l18.339844 15.675781c1.359375 1.148437 1.585938 3.105469.625 4.542969l4.210938-4.925782c1.160156-1.359374 1-3.398437-.359375-4.558593zm0 0"/><path d="m402.640625 107.855469 18.339844 15.675781c1.449219 1.226562 1.632812 3.378906.429687 4.835938l4.40625-5.152344c.742188-.867188.972656-1.996094.734375-3.035156-.167969-.597657-.507812-1.152344-1.011719-1.582032l-18.710937-15.988281c-.839844-.71875-1.9375-.925781-2.929687-.664063-.417969.117188-.816407.3125-1.171876.585938-.160156.128906-.3125.273438-.453124.433594l-4.28125 5.011718c1.277343-1.207031 3.28125-1.289062 4.648437-.121093zm0 0"/><path d="m395.0625 92.554688-18.707031-15.984376c-.660157-.5625-1.476563-.808593-2.28125-.765624-.851563.089843-1.671875.488281-2.273438 1.191406l-4.246093 4.976562c1.273437-1.242187 3.308593-1.335937 4.695312-.15625l18.335938 15.675782c1.332031 1.144531 1.578124 3.074218.652343 4.515624l4.183594-4.894531c1.160156-1.359375 1-3.398437-.359375-4.558593zm0 0"/><path d="m435.082031 50.613281c.527344-.976562.539063-2.140625.078125-3.125-.183594-.355469-.4375-.6875-.761718-.960937l-18.707032-15.988282c-.292968-.253906-.621094-.429687-.964844-.558593-1.289062-.402344-2.75-.035157-3.679687 1.058593l-4.496094 5.269532c1.277344-1.246094 3.3125-1.339844 4.695313-.15625l18.335937 15.664062c1.390625 1.203125 1.609375 3.253906.527344 4.699219l4.648437-5.4375c.125-.144531.226563-.304687.324219-.464844zm0 0"/><path d="m464.875 72.566406-18.710938-15.988281c-.816406-.699219-1.886718-.910156-2.855468-.675781-.644532.179687-1.238282.542968-1.707032 1.089844l-4.492187 5.269531c1.273437-1.246094 3.308594-1.339844 4.691406-.15625l18.339844 15.664062c1.375 1.195313 1.601563 3.21875.550781 4.664063l4.539063-5.3125c1.160156-1.355469 1-3.394532-.355469-4.554688zm0 0"/></g><path d="m417.097656 26.367188 82.15625 70.199218c4.65625 3.980469 5.210938 10.984375 1.21875 15.652344l8.863282-10.371094c.8125-.949218 1.425781-1.996094 1.863281-3.09375 1.71875-4.292968.625-9.382812-3.085938-12.558594l-43.585937-37.242187-38.570313-32.957031c-.664062-.570313-1.382812-1.035156-2.128906-1.421875-4.476563-2.3125-10.105469-1.347657-13.519531 2.648437l-8.710938 10.191406c4.023438-4.488281 10.90625-4.980468 15.5-1.046874zm0 0" fill="#2f394a"/></svg>